<svg xmlns="http://www.w3.org/2000/svg" viewBox="0 0 760 480" width="760" height="480">
  <defs>
    <pattern id="grid2" width="40" height="40" patternUnits="userSpaceOnUse">
      <path d="M40 0L0 0 0 40" fill="none" stroke="#2a2d35" stroke-width="0.5"/>
    </pattern>
  </defs>

  <rect width="760" height="480" fill="#1a1d23" rx="8"/>

  <text x="380" y="24" fill="#e2e8f0" font-size="16" font-weight="700" text-anchor="middle">Bullish Engulfing at Key Support — Stronger Signal</text>

  <!-- Chart area -->
  <rect x="55" y="34" width="655" height="240" fill="url(#grid2)" rx="4"/>

  <!-- Price labels -->
  <text x="48" y="48" fill="#64748b" font-size="13" text-anchor="end">1.1200</text>
  <text x="48" y="115" fill="#64748b" font-size="13" text-anchor="end">1.1100</text>
  <text x="48" y="182" fill="#64748b" font-size="13" text-anchor="end">1.1000</text>
  <text x="48" y="260" fill="#64748b" font-size="13" text-anchor="end">1.0900</text>

  <line x1="55" y1="55" x2="710" y2="55" stroke="#2a2d35" stroke-width="0.5"/>
  <line x1="55" y1="122" x2="710" y2="122" stroke="#2a2d35" stroke-width="0.5"/>
  <line x1="55" y1="189" x2="710" y2="189" stroke="#2a2d35" stroke-width="0.5"/>
  <line x1="55" y1="256" x2="710" y2="256" stroke="#2a2d35" stroke-width="0.5"/>

  <!-- Candle 1 — bearish: high=78, open=90, close=122, low=140 -->
  <line x1="120" y1="78" x2="120" y2="140" stroke="#ef4444" stroke-width="1.5"/>
  <rect x="104" y="90" width="32" height="32" fill="#ef4444" rx="1"/>

  <!-- Candle 2 — bearish: high=105, open=118, close=152, low=168 -->
  <line x1="200" y1="105" x2="200" y2="168" stroke="#ef4444" stroke-width="1.5"/>
  <rect x="184" y="118" width="32" height="34" fill="#ef4444" rx="1"/>

  <!-- Candle 3 — bearish: high=132, open=148, close=180, low=196 -->
  <line x1="280" y1="132" x2="280" y2="196" stroke="#ef4444" stroke-width="1.5"/>
  <rect x="264" y="148" width="32" height="32" fill="#ef4444" rx="1"/>

  <!-- Candle 4 — small bearish: high=162, open=172, close=195, low=210 -->
  <line x1="360" y1="162" x2="360" y2="210" stroke="#ef4444" stroke-width="1.5"/>
  <rect x="344" y="172" width="32" height="23" fill="#ef4444" rx="1"/>

  <!-- Candle 5 — large bullish engulfing: high=92, open=230, close=105, low=252 -->
  <line x1="440" y1="92" x2="440" y2="252" stroke="#22c55e" stroke-width="2"/>
  <rect x="422" y="105" width="36" height="125" fill="#22c55e" rx="1"/>

  <!-- Candle 6 — bullish follow-through: high=80, open=140, close=92, low=158 -->
  <line x1="520" y1="80" x2="520" y2="158" stroke="#22c55e" stroke-width="1.5"/>
  <rect x="504" y="92" width="32" height="48" fill="#22c55e" rx="1"/>

  <!-- Candle 7 — bullish: high=62, open=118, close=75, low=136 -->
  <line x1="600" y1="62" x2="600" y2="136" stroke="#22c55e" stroke-width="1.5"/>
  <rect x="584" y="75" width="32" height="43" fill="#22c55e" rx="1"/>

  <!-- Support line -->
  <line x1="55" y1="235" x2="710" y2="235" stroke="#f59e0b" stroke-width="2" stroke-dasharray="5,3"/>
  <rect x="618" y="228" width="92" height="20" fill="#1a1d23" rx="4"/>
  <text x="664" y="242" fill="#f59e0b" font-size="12" font-weight="600" text-anchor="middle">Key Support Level</text>

  <!-- Highlight box around pattern -->
  <rect x="335" y="85" width="130" height="185" fill="none" stroke="#f59e0b" stroke-width="2" stroke-dasharray="5,3" rx="6"/>
  <rect x="362" y="90" width="76" height="22" fill="#f59e0b" rx="4"/>
  <text x="400" y="105" fill="#1a1d23" font-size="13" font-weight="700" text-anchor="middle">PATTERN</text>

  <!-- Chart annotations -->
  <line x1="360" y1="195" x2="330" y2="275" stroke="#94a3b8" stroke-width="1" stroke-dasharray="3,2"/>
  <rect x="278" y="267" width="58" height="20" fill="#1e293b" stroke="#ef4444" stroke-width="0.5" rx="4"/>
  <text x="307" y="281" fill="#ef4444" font-size="11" text-anchor="middle">Small red</text>

  <line x1="440" y1="160" x2="480" y2="285" stroke="#94a3b8" stroke-width="1" stroke-dasharray="3,2"/>
  <rect x="470" y="277" width="70" height="20" fill="#1e293b" stroke="#22c55e" stroke-width="0.5" rx="4"/>
  <text x="505" y="291" fill="#22c55e" font-size="11" text-anchor="middle">Big green</text>

  <!-- Bottom section: merged educational box + checklist -->
  <rect x="40" y="290" width="670" height="110" fill="#f59e0b" fill-opacity="0.06" stroke="#f59e0b" stroke-width="0.5" rx="6"/>
  <text x="375" y="312" fill="#fbbf24" font-size="13" font-weight="600" text-anchor="middle">💡 More confirming factors = higher probability trade</text>
  <text x="375" y="332" fill="#fbbf24" font-size="12" text-anchor="middle">Support + Engulfing Pattern + Follow Through = strong reversal signal</text>
  <line x1="55" y1="346" x2="695" y2="346" stroke="#f59e0b" stroke-opacity="0.2" stroke-width="0.5"/>
  <circle cx="80" cy="365" r="4" fill="#22c55e"/>
  <text x="90" y="369" fill="#94a3b8" font-size="11">At support level</text>
  <circle cx="230" cy="365" r="4" fill="#22c55e"/>
  <text x="240" y="369" fill="#94a3b8" font-size="11">Large green body</text>
  <circle cx="390" cy="365" r="4" fill="#22c55e"/>
  <text x="400" y="369" fill="#94a3b8" font-size="11">Green follow-through</text>
  <circle cx="540" cy="365" r="4" fill="#22c55e"/>
  <text x="550" y="369" fill="#94a3b8" font-size="11">Price respected support</text>

  <!-- Legend -->
  <rect x="40" y="420" width="12" height="12" fill="#ef4444" rx="2"/>
  <text x="56" y="430" fill="#94a3b8" font-size="11">Bearish candle</text>
  <rect x="148" y="420" width="12" height="12" fill="#22c55e" rx="2"/>
  <text x="164" y="430" fill="#94a3b8" font-size="11">Bullish candle</text>
  <rect x="256" y="420" width="12" height="12" fill="#f59e0b" rx="2"/>
  <text x="272" y="430" fill="#94a3b8" font-size="11">Support level</text>

  <!-- Additional note -->
  <text x="380" y="465" fill="#475569" font-size="11" text-anchor="middle">Disclaimer: This is for educational purposes only. Always do your own analysis.</text>
</svg>
