<svg xmlns="http://www.w3.org/2000/svg" viewBox="0 0 760 480" width="760" height="480">
  <rect width="760" height="480" fill="#1a1d23" rx="8"/>
  <text x="380" y="26" fill="#e2e8f0" font-size="16" font-weight="700" text-anchor="middle">Safe Investments With High Returns (2026)</text>

  <!-- Risk vs Return chart -->
  <rect x="40" y="45" width="440" height="250" fill="#1e293b" rx="6"/>
  <text x="260" y="68" fill="#e2e8f0" font-size="13" font-weight="700" text-anchor="middle">Risk vs Return Spectrum</text>

  <!-- Axis -->
  <line x1="80" y1="260" x2="460" y2="260" stroke="#334155" stroke-width="1"/>
  <line x1="80" y1="85" x2="80" y2="260" stroke="#334155" stroke-width="1"/>
  <text x="270" y="280" fill="#94a3b8" font-size="10" text-anchor="middle">Risk Level →</text>
  <text x="65" y="175" fill="#94a3b8" font-size="10" text-anchor="middle" transform="rotate(-90,65,175)">Return →</text>

  <!-- Safe zone -->
  <rect x="80" y="85" width="120" height="175" fill="#22c55e" opacity="0.08"/>
  <text x="140" y="100" fill="#22c55e" font-size="10" font-weight="600" text-anchor="middle">SAFE ZONE</text>

  <!-- Moderate zone -->
  <rect x="200" y="85" width="120" height="175" fill="#f59e0b" opacity="0.08"/>
  <text x="260" y="100" fill="#f59e0b" font-size="10" font-weight="600" text-anchor="middle">MODERATE</text>

  <!-- Risky zone -->
  <rect x="320" y="85" width="140" height="175" fill="#ef4444" opacity="0.08"/>
  <text x="390" y="100" fill="#ef4444" font-size="10" font-weight="600" text-anchor="middle">HIGHER RISK</text>

  <!-- Investment points -->
  <circle cx="100" cy="235" r="6" fill="#22c55e"/>
  <text x="100" y="252" fill="#94a3b8" font-size="9" text-anchor="middle">Savings 4.5%</text>

  <circle cx="130" cy="220" r="6" fill="#22c55e"/>
  <text x="130" y="237" fill="#94a3b8" font-size="9" text-anchor="middle">T-Bills 4.8%</text>

  <circle cx="160" cy="200" r="6" fill="#22c55e"/>
  <text x="160" y="217" fill="#94a3b8" font-size="9" text-anchor="middle">CDs 4.5%</text>

  <circle cx="210" cy="185" r="6" fill="#f59e0b"/>
  <text x="210" y="202" fill="#94a3b8" font-size="9" text-anchor="middle">Bonds 5%</text>

  <circle cx="260" cy="165" r="6" fill="#f59e0b"/>
  <text x="260" y="182" fill="#94a3b8" font-size="9" text-anchor="middle">Div ETFs 4%</text>

  <circle cx="320" cy="140" r="6" fill="#f59e0b"/>
  <text x="320" y="157" fill="#94a3b8" font-size="9" text-anchor="middle">REITs 4.5%</text>

  <circle cx="380" cy="120" r="6" fill="#ef4444"/>
  <text x="380" y="137" fill="#94a3b8" font-size="9" text-anchor="middle">Stocks 10%</text>

  <circle cx="430" cy="105" r="6" fill="#ef4444"/>
  <text x="430" y="122" fill="#94a3b8" font-size="9" text-anchor="middle">Crypto 20%+</text>

  <!-- Top investments table -->
  <rect x="500" y="45" width="220" height="250" fill="#1e293b" rx="6"/>
  <text x="610" y="68" fill="#e2e8f0" font-size="13" font-weight="700" text-anchor="middle">Top Safe Picks</text>

  <text x="515" y="95" fill="#22c55e" font-size="10" font-weight="600">High-Yield Savings</text>
  <text x="515" y="110" fill="#94a3b8" font-size="9">Marcus, Ally, Discover</text>
  <text x="515" y="123" fill="#94a3b8" font-size="9">Yield: 4.5% | FDIC insured</text>

  <text x="515" y="148" fill="#22c55e" font-size="10" font-weight="600">Treasury Bills (T-Bills)</text>
  <text x="515" y="163" fill="#94a3b8" font-size="9">4-week to 52-week terms</text>
  <text x="515" y="176" fill="#94a3b8" font-size="9">Yield: 4.8% | Zero risk</text>

  <text x="515" y="201" fill="#22c55e" font-size="10" font-weight="600">Certificates of Deposit</text>
  <text x="515" y="216" fill="#94a3b8" font-size="9">6-month to 5-year terms</text>
  <text x="515" y="229" fill="#94a3b8" font-size="9">Yield: 4.5% | FDIC insured</text>

  <text x="515" y="254" fill="#22c55e" font-size="10" font-weight="600">I-Bonds</text>
  <text x="515" y="269" fill="#94a3b8" font-size="9">Inflation-protected</text>
  <text x="515" y="282" fill="#94a3b8" font-size="9">Yield: 4.3% | $10K limit/year</text>

  <!-- Bottom comparison -->
  <rect x="40" y="310" width="680" height="155" fill="#1e293b" rx="6"/>
  <text x="380" y="335" fill="#e2e8f0" font-size="13" font-weight="700" text-anchor="middle">Safe Investments Compared</text>

  <text x="60" y="360" fill="#94a3b8" font-size="10" font-weight="600">Investment</text>
  <text x="210" y="360" fill="#94a3b8" font-size="10" font-weight="600">Yield</text>
  <text x="290" y="360" fill="#94a3b8" font-size="10" font-weight="600">Risk</text>
  <text x="370" y="360" fill="#94a3b8" font-size="10" font-weight="600">Liquidity</text>
  <text x="480" y="360" fill="#94a3b8" font-size="10" font-weight="600">Min. Investment</text>

  <line x1="60" y1="368" x2="620" y2="368" stroke="#334155" stroke-width="1"/>

  <text x="60" y="385" fill="#e2e8f0" font-size="10">High-Yield Savings</text>
  <text x="210" y="385" fill="#22c55e" font-size="10">4.5%</text>
  <text x="290" y="385" fill="#22c55e" font-size="10">Zero</text>
  <text x="370" y="385" fill="#22c55e" font-size="10">Instant</text>
  <text x="480" y="385" fill="#94a3b8" font-size="10">$0</text>

  <text x="60" y="405" fill="#e2e8f0" font-size="10">T-Bills</text>
  <text x="210" y="405" fill="#22c55e" font-size="10">4.8%</text>
  <text x="290" y="405" fill="#22c55e" font-size="10">Zero</text>
  <text x="370" y="405" fill="#f59e0b" font-size="10">At maturity</text>
  <text x="480" y="405" fill="#94a3b8" font-size="10">$100</text>

  <text x="60" y="425" fill="#e2e8f0" font-size="10">CDs</text>
  <text x="210" y="425" fill="#22c55e" font-size="10">4.5%</text>
  <text x="290" y="425" fill="#22c55e" font-size="10">Zero</text>
  <text x="370" y="425" fill="#ef4444" font-size="10">At maturity</text>
  <text x="480" y="425" fill="#94a3b8" font-size="10">$500</text>

  <text x="60" y="445" fill="#e2e8f0" font-size="10">I-Bonds</text>
  <text x="210" y="445" fill="#22c55e" font-size="10">4.3%</text>
  <text x="290" y="445" fill="#22c55e" font-size="10">Zero</text>
  <text x="370" y="445" fill="#ef4444" font-size="10">1 year lock</text>
  <text x="480" y="445" fill="#94a3b8" font-size="10">$25+</text>
</svg>
