<svg xmlns="http://www.w3.org/2000/svg" viewBox="0 0 760 320" width="760" height="320">
  <defs>
    <pattern id="grid2" width="40" height="40" patternUnits="userSpaceOnUse">
      <path d="M 40 0 L 0 0 0 40" fill="none" stroke="#2a2d35" stroke-width="0.5"/>
    </pattern>
    <marker id="arrow-green2" markerWidth="8" markerHeight="8" refX="8" refY="4" orient="auto">
      <path d="M0,0 L8,4 L0,8 Z" fill="#22c55e"/>
    </marker>
  </defs>
  <rect width="760" height="320" fill="#1a1d23" rx="8"/>
  <rect x="50" y="30" width="660" height="200" fill="url(#grid2)"/>
  <text x="380" y="22" fill="#e2e8f0" font-size="13" font-weight="700" text-anchor="middle" letter-spacing="0.5">EUR/USD · Daily Chart — Multiple Confluence</text>
  <line x1="100" y1="80" x2="100" y2="120" stroke="#ef4444" stroke-width="1.5"/>
  <rect x="86" y="85" width="28" height="28" fill="#ef4444" rx="1"/>
  <line x1="160" y1="100" x2="160" y2="140" stroke="#ef4444" stroke-width="1.5"/>
  <rect x="146" y="105" width="28" height="28" fill="#ef4444" rx="1"/>
  <line x1="220" y1="115" x2="220" y2="155" stroke="#ef4444" stroke-width="1.5"/>
  <rect x="206" y="120" width="28" height="28" fill="#ef4444" rx="1"/>
  <line x1="280" y1="125" x2="280" y2="165" stroke="#ef4444" stroke-width="1.5"/>
  <rect x="266" y="130" width="28" height="25" fill="#ef4444" rx="1"/>
  <line x1="345" y1="100" x2="345" y2="178" stroke="#22c55e" stroke-width="2"/>
  <rect x="326" y="108" width="38" height="58" fill="#22c55e" rx="1"/>
  <line x1="410" y1="75" x2="410" y2="115" stroke="#22c55e" stroke-width="1.5"/>
  <rect x="396" y="80" width="28" height="25" fill="#22c55e" rx="1"/>
  <line x1="470" y1="58" x2="470" y2="95" stroke="#22c55e" stroke-width="1.5"/>
  <rect x="456" y="62" width="28" height="22" fill="#22c55e" rx="1"/>
  <line x1="50" y1="160" x2="710" y2="160" stroke="#f59e0b" stroke-width="1.5" stroke-dasharray="5,3" opacity="0.7"/>
  <text x="715" y="163" fill="#f59e0b" font-size="10" font-weight="600" opacity="0.8">Key support</text>
  <polyline points="100,95 160,110 220,120 280,145 345,130 410,112 470,90" fill="none" stroke="#8b5cf6" stroke-width="1.5" stroke-dasharray="4,3"/>
  <text x="480" y="88" fill="#8b5cf6" font-size="9" opacity="0.8">50 EMA</text>
  <line x1="86" y1="85" x2="266" y2="135" stroke="#ef4444" stroke-width="1.5" stroke-dasharray="5,3" opacity="0.5"/>
  <text x="150" y="115" fill="#ef4444" font-size="10" opacity="0.6" transform="rotate(-12, 150, 115)">Downtrend</text>
  <line x1="345" y1="182" x2="345" y2="215" stroke="#22c55e" stroke-width="1.5" marker-end="url(#arrow-green2)"/>
  <rect x="270" y="218" width="150" height="18" fill="#22c55e" rx="4" opacity="0.9"/>
  <text x="345" y="231" fill="#1a1d23" font-size="10" font-weight="700" text-anchor="middle">BULLISH ENGULFING</text>
  <circle cx="580" cy="60" r="5" fill="#22c55e"/>
  <text x="590" y="64" fill="#22c55e" font-size="9">At support level</text>
  <circle cx="580" cy="78" r="5" fill="#22c55e"/>
  <text x="590" y="82" fill="#22c55e" font-size="9">Above 50 EMA</text>
  <circle cx="580" cy="96" r="5" fill="#22c55e"/>
  <text x="590" y="100" fill="#22c55e" font-size="9">Volume confirming</text>
  <circle cx="580" cy="114" r="5" fill="#22c55e"/>
  <text x="590" y="118" fill="#22c55e" font-size="9">MACD bullish cross</text>
</svg>
