<svg xmlns="http://www.w3.org/2000/svg" viewBox="0 0 760 420" width="760" height="420">
  <defs>
    <pattern id="grid1" width="40" height="40" patternUnits="userSpaceOnUse">
      <path d="M 40 0 L 0 0 0 40" fill="none" stroke="#2a2d35" stroke-width="0.5"/>
    </pattern>
    <marker id="arrow-green1" markerWidth="8" markerHeight="8" refX="8" refY="4" orient="auto">
      <path d="M0,0 L8,4 L0,8 Z" fill="#22c55e"/>
    </marker>
  </defs>
  <rect width="760" height="420" fill="#1a1d23" rx="8"/>
  <rect x="50" y="30" width="660" height="250" fill="url(#grid1)"/>
  <text x="380" y="22" fill="#e2e8f0" font-size="13" font-weight="700" text-anchor="middle" letter-spacing="0.5">BTC/USD · 4H Chart — Bullish Engulfing Reversal</text>
  <text x="42" y="42" fill="#64748b" font-size="10" text-anchor="end">65,000</text>
  <text x="42" y="95" fill="#64748b" font-size="10" text-anchor="end">63,000</text>
  <text x="42" y="148" fill="#64748b" font-size="10" text-anchor="end">61,000</text>
  <text x="42" y="201" fill="#64748b" font-size="10" text-anchor="end">59,000</text>
  <text x="42" y="254" fill="#64748b" font-size="10" text-anchor="end">57,000</text>
  <line x1="50" y1="40" x2="710" y2="40" stroke="#2a2d35" stroke-width="0.5"/>
  <line x1="50" y1="93" x2="710" y2="93" stroke="#2a2d35" stroke-width="0.5"/>
  <line x1="50" y1="146" x2="710" y2="146" stroke="#2a2d35" stroke-width="0.5"/>
  <line x1="50" y1="199" x2="710" y2="199" stroke="#2a2d35" stroke-width="0.5"/>
  <line x1="50" y1="252" x2="710" y2="252" stroke="#2a2d35" stroke-width="0.5"/>
  <line x1="130" y1="68" x2="130" y2="112" stroke="#ef4444" stroke-width="1.5"/>
  <rect x="115" y="72" width="30" height="32" fill="#ef4444" rx="1"/>
  <line x1="200" y1="88" x2="200" y2="132" stroke="#ef4444" stroke-width="1.5"/>
  <rect x="185" y="92" width="30" height="32" fill="#ef4444" rx="1"/>
  <line x1="270" y1="105" x2="270" y2="152" stroke="#ef4444" stroke-width="1.5"/>
  <rect x="255" y="110" width="30" height="35" fill="#ef4444" rx="1"/>
  <line x1="340" y1="128" x2="340" y2="170" stroke="#ef4444" stroke-width="1.5"/>
  <rect x="325" y="132" width="30" height="30" fill="#ef4444" rx="1"/>
  <line x1="410" y1="140" x2="410" y2="180" stroke="#ef4444" stroke-width="1.5"/>
  <rect x="395" y="155" width="30" height="10" fill="#ef4444" rx="1"/>
  <line x1="480" y1="135" x2="480" y2="210" stroke="#22c55e" stroke-width="1.5"/>
  <rect x="462" y="142" width="36" height="60" fill="#22c55e" rx="1"/>
  <line x1="550" y1="105" x2="550" y2="150" stroke="#22c55e" stroke-width="1.5"/>
  <rect x="535" y="110" width="30" height="30" fill="#22c55e" rx="1"/>
  <line x1="620" y1="85" x2="620" y2="125" stroke="#22c55e" stroke-width="1.5"/>
  <rect x="605" y="90" width="30" height="28" fill="#22c55e" rx="1"/>
  <line x1="115" y1="72" x2="395" y2="160" stroke="#ef4444" stroke-width="1.5" stroke-dasharray="6,3" opacity="0.6"/>
  <text x="250" y="118" fill="#ef4444" font-size="10" opacity="0.6" transform="rotate(-15, 250, 118)">Downtrend</text>
  <line x1="50" y1="185" x2="710" y2="185" stroke="#f59e0b" stroke-width="1" stroke-dasharray="4,3" opacity="0.5"/>
  <text x="715" y="188" fill="#f59e0b" font-size="9" opacity="0.7">Support</text>
  <line x1="480" y1="215" x2="480" y2="275" stroke="#22c55e" stroke-width="1.5" marker-end="url(#arrow-green1)"/>
  <rect x="425" y="278" width="110" height="20" fill="#22c55e" rx="4" opacity="0.9"/>
  <text x="480" y="292" fill="#1a1d23" font-size="11" font-weight="700" text-anchor="middle">BULLISH ENGULFING</text>
  <text x="30" y="305" fill="#64748b" font-size="9" text-anchor="end">Vol</text>
  <line x1="50" y1="295" x2="710" y2="295" stroke="#2a2d35" stroke-width="0.5"/>
  <rect x="118" y="322" width="24" height="18" fill="#ef4444" opacity="0.5" rx="1"/>
  <rect x="188" y="316" width="24" height="24" fill="#ef4444" opacity="0.5" rx="1"/>
  <rect x="258" y="310" width="24" height="30" fill="#ef4444" opacity="0.5" rx="1"/>
  <rect x="328" y="316" width="24" height="24" fill="#ef4444" opacity="0.5" rx="1"/>
  <rect x="398" y="330" width="24" height="10" fill="#ef4444" opacity="0.5" rx="1"/>
  <rect x="466" y="290" width="28" height="50" fill="#22c55e" opacity="0.7" rx="1"/>
  <rect x="538" y="298" width="24" height="42" fill="#22c55e" opacity="0.5" rx="1"/>
  <rect x="608" y="310" width="24" height="30" fill="#22c55e" opacity="0.5" rx="1"/>
  <text x="480" y="348" fill="#22c55e" font-size="9" font-weight="600" text-anchor="middle" opacity="0.8">Volume spike</text>
  <text x="30" y="380" fill="#64748b" font-size="9" text-anchor="end">MACD</text>
  <rect x="50" y="360" width="660" height="55" fill="url(#grid1)"/>
  <line x1="50" y1="387" x2="710" y2="387" stroke="#4b5563" stroke-width="0.5" stroke-dasharray="2,2"/>
  <polyline points="130,395 200,398 270,400 340,402 410,400 480,395 550,388 620,380" fill="none" stroke="#3b82f6" stroke-width="1.5"/>
  <polyline points="130,392 200,395 270,398 340,400 410,401 480,400 550,396 620,390" fill="none" stroke="#f59e0b" stroke-width="1.5"/>
  <rect x="175" y="383" width="8" height="10" fill="#ef4444" opacity="0.6" rx="1"/>
  <rect x="245" y="381" width="8" height="14" fill="#ef4444" opacity="0.6" rx="1"/>
  <rect x="315" y="380" width="8" height="16" fill="#ef4444" opacity="0.6" rx="1"/>
  <rect x="385" y="382" width="8" height="12" fill="#ef4444" opacity="0.6" rx="1"/>
  <rect x="455" y="385" width="8" height="6" fill="#ef4444" opacity="0.6" rx="1"/>
  <rect x="495" y="388" width="8" height="4" fill="#22c55e" opacity="0.6" rx="1"/>
  <rect x="525" y="386" width="8" height="8" fill="#22c55e" opacity="0.6" rx="1"/>
  <rect x="595" y="383" width="8" height="12" fill="#22c55e" opacity="0.6" rx="1"/>
  <circle cx="495" cy="396" r="3" fill="#f59e0b"/>
  <text x="500" y="378" fill="#f59e0b" font-size="9" font-weight="600">Buy signal</text>
  <rect x="570" y="368" width="8" height="8" fill="#3b82f6" rx="1"/>
  <text x="582" y="376" fill="#64748b" font-size="9">MACD</text>
  <rect x="620" y="368" width="8" height="8" fill="#f59e0b" rx="1"/>
  <text x="632" y="376" fill="#64748b" font-size="9">Signal</text>
</svg>
