<svg xmlns="http://www.w3.org/2000/svg" viewBox="0 0 760 520" width="760" height="520">
  <rect width="760" height="520" fill="#1a1d23" rx="8"/>
  <text x="380" y="26" fill="#e2e8f0" font-size="16" font-weight="700" text-anchor="middle">Hammer &amp; Shooting Star — Visual Guide</text>

  <!-- ═══════ LEFT PANEL: HAMMER ═══════ -->
  <text x="220" y="54" fill="#22c55e" font-size="14" font-weight="700" text-anchor="middle">Hammer (Bullish Reversal)</text>
  <rect x="40" y="65" width="330" height="280" fill="url(#g1)" rx="4"/>
  <defs><pattern id="g1" width="40" height="40" patternUnits="userSpaceOnUse"><path d="M40 0L0 0 0 40" fill="none" stroke="#2a2d35" stroke-width="0.5"/></pattern><pattern id="g2" width="40" height="40" patternUnits="userSpaceOnUse"><path d="M40 0L0 0 0 40" fill="none" stroke="#2a2d35" stroke-width="0.5"/></pattern></defs>

  <text x="33" y="78" fill="#64748b" font-size="12" text-anchor="end">105</text>
  <text x="33" y="168" fill="#64748b" font-size="12" text-anchor="end">100</text>
  <text x="33" y="258" fill="#64748b" font-size="12" text-anchor="end">95</text>
  <text x="33" y="335" fill="#64748b" font-size="12" text-anchor="end">90</text>
  <line x1="40" y1="85" x2="370" y2="85" stroke="#2a2d35" stroke-width="0.5"/>
  <line x1="40" y1="175" x2="370" y2="175" stroke="#2a2d35" stroke-width="0.5"/>
  <line x1="40" y1="265" x2="370" y2="265" stroke="#2a2d35" stroke-width="0.5"/>
  <line x1="40" y1="335" x2="370" y2="335" stroke="#2a2d35" stroke-width="0.5"/>

  <!-- Hammer downtrend candles -->
  <line x1="75" y1="100" x2="75" y2="150" stroke="#ef4444" stroke-width="1.5"/>
  <rect x="60" y="108" width="30" height="28" fill="#ef4444" rx="1"/>
  <line x1="130" y1="135" x2="130" y2="185" stroke="#ef4444" stroke-width="1.5"/>
  <rect x="115" y="145" width="30" height="26" fill="#ef4444" rx="1"/>
  <line x1="185" y1="170" x2="185" y2="220" stroke="#ef4444" stroke-width="1.5"/>
  <rect x="170" y="180" width="30" height="24" fill="#ef4444" rx="1"/>

  <!-- HAMMER candle -->
  <line x1="245" y1="200" x2="245" y2="330" stroke="#22c55e" stroke-width="2.5"/>
  <rect x="228" y="240" width="34" height="28" fill="#22c55e" rx="1"/>

  <!-- Confirmation bullish candle -->
  <line x1="305" y1="120" x2="305" y2="185" stroke="#22c55e" stroke-width="1.5"/>
  <rect x="290" y="130" width="30" height="36" fill="#22c55e" rx="1"/>

  <!-- Labels -->
  <rect x="140" y="160" width="65" height="18" fill="#1a1d23" rx="9"/>
  <text x="172" y="173" fill="#ef4444" font-size="11" font-weight="600" text-anchor="middle">Downtrend</text>
  <rect x="215" y="338" width="55" height="18" fill="#1a1d23" rx="9"/>
  <text x="242" y="350" fill="#22c55e" font-size="11" font-weight="600" text-anchor="middle">Long lower wick</text>
  <rect x="225" y="210" width="45" height="18" fill="#22c55e" rx="4"/>
  <text x="247" y="223" fill="#1a1d23" font-size="10" font-weight="700" text-anchor="middle">SMALL BODY</text>

  <!-- Right side: Hammer anatomy -->
  <rect x="400" y="68" width="320" height="130" fill="#1e293b" rx="6"/>
  <text x="560" y="90" fill="#e2e8f0" font-size="13" font-weight="700" text-anchor="middle">Hammer Anatomy</text>
  <line x1="440" y1="110" x2="440" y2="175" stroke="#22c55e" stroke-width="2"/>
  <rect x="425" y="115" width="30" height="25" fill="#22c55e" rx="1"/>
  <line x1="440" y1="115" x2="500" y2="118" stroke="#94a3b8" stroke-width="1" stroke-dasharray="3,2"/>
  <text x="505" y="121" fill="#94a3b8" font-size="11">Upper wick (short or none)</text>
  <line x1="440" y1="140" x2="500" y2="140" stroke="#94a3b8" stroke-width="1" stroke-dasharray="3,2"/>
  <text x="505" y="143" fill="#94a3b8" font-size="11">Small body at top</text>
  <line x1="440" y1="175" x2="500" y2="170" stroke="#94a3b8" stroke-width="1" stroke-dasharray="3,2"/>
  <text x="505" y="173" fill="#94a3b8" font-size="11">Lower wick (2x+ body length)</text>

  <rect x="400" y="210" width="320" height="55" fill="#f59e0b" fill-opacity="0.08" rx="6"/>
  <text x="560" y="233" fill="#fbbf24" font-size="12" font-weight="600" text-anchor="middle">💡 Forms after a downtrend. Shows sellers pushed</text>
  <text x="560" y="253" fill="#fbbf24" font-size="12" text-anchor="middle">price down, but buyers fought back to near the open.</text>

  <!-- ═══════ RIGHT PANEL: SHOOTING STAR ═══════ -->
  <text x="560" y="295" fill="#ef4444" font-size="14" font-weight="700" text-anchor="middle">Shooting Star (Bearish Reversal)</text>
  <rect x="390" y="305" width="330" height="200" fill="url(#g2)" rx="4"/>

  <text x="383" y="318" fill="#64748b" font-size="12" text-anchor="end">110</text>
  <text x="383" y="388" fill="#64748b" font-size="12" text-anchor="end">105</text>
  <text x="383" y="458" fill="#64748b" font-size="12" text-anchor="end">100</text>
  <text x="383" y="495" fill="#64748b" font-size="12" text-anchor="end">95</text>
  <line x1="390" y1="325" x2="720" y2="325" stroke="#2a2d35" stroke-width="0.5"/>
  <line x1="390" y1="395" x2="720" y2="395" stroke="#2a2d35" stroke-width="0.5"/>
  <line x1="390" y1="465" x2="720" y2="465" stroke="#2a2d35" stroke-width="0.5"/>
  <line x1="390" y1="495" x2="720" y2="495" stroke="#2a2d35" stroke-width="0.5"/>

  <!-- Shooting star uptrend candles -->
  <line x1="425" y1="340" x2="425" y2="380" stroke="#22c55e" stroke-width="1.5"/>
  <rect x="410" y="348" width="30" height="22" fill="#22c55e" rx="1"/>
  <line x1="480" y1="350" x2="480" y2="388" stroke="#22c55e" stroke-width="1.5"/>
  <rect x="465" y="358" width="30" height="20" fill="#22c55e" rx="1"/>
  <line x1="535" y1="355" x2="535" y2="392" stroke="#22c55e" stroke-width="1.5"/>
  <rect x="520" y="365" width="30" height="18" fill="#22c55e" rx="1"/>

  <!-- SHOOTING STAR candle -->
  <line x1="600" y1="310" x2="600" y2="410" stroke="#ef4444" stroke-width="2.5"/>
  <rect x="582" y="382" width="36" height="25" fill="#ef4444" rx="1"/>
  <rect x="590" y="310" width="20" height="18" fill="#ef4444" rx="1"/>

  <!-- Confirmation bearish -->
  <line x1="655" y1="380" x2="655" y2="450" stroke="#ef4444" stroke-width="1.5"/>
  <rect x="640" y="400" width="30" height="30" fill="#ef4444" rx="1"/>

  <!-- Labels -->
  <rect x="485" y="378" width="65" height="18" fill="#1a1d23" rx="9"/>
  <text x="517" y="391" fill="#22c55e" font-size="11" font-weight="600" text-anchor="middle">Uptrend</text>
  <rect x="585" y="415" width="60" height="18" fill="#1a1d23" rx="9"/>
  <text x="615" y="428" fill="#ef4444" font-size="11" font-weight="600" text-anchor="middle">Long upper wick</text>
  <rect x="590" y="370" width="30" height="18" fill="#ef4444" rx="4"/>
  <text x="605" y="383" fill="#1a1d23" font-size="10" font-weight="700" text-anchor="middle">SMALL BODY</text>

</svg>
